<?xml version="1.0" standalone="no"?>
<!DOCTYPE svg PUBLIC "-//W3C//DTD SVG 20010904//EN"
 "http://www.w3.org/TR/2001/REC-SVG-20010904/DTD/svg10.dtd">
<svg version="1.0" xmlns="http://www.w3.org/2000/svg"
 width="600.000000pt" height="600.000000pt" viewBox="0 0 600.000000 600.000000"
 preserveAspectRatio="xMidYMid meet">
<metadata>
Created by potrace 1.14, written by Peter Selinger 2001-2017
</metadata>
<g transform="translate(0.000000,600.000000) scale(0.100000,-0.100000)"
fill="#000000" stroke="none">
<path d="M2849 5696 c-2 -2 -44 -6 -93 -9 -58 -3 -91 -9 -96 -18 -7 -10 -40
-13 -145 -11 -76 1 -141 -1 -147 -4 -5 -3 -39 -7 -76 -8 -40 -2 -67 -7 -70
-14 -2 -7 -10 -12 -18 -12 -9 0 -13 -4 -10 -9 3 -4 -12 -14 -32 -20 -30 -10
-38 -18 -40 -39 -3 -32 -20 -44 -44 -31 -16 8 -21 4 -33 -25 -9 -20 -19 -36
-23 -37 -4 0 -17 -2 -29 -3 -30 -3 -41 -15 -24 -25 10 -6 3 -12 -23 -21 -19
-6 -35 -14 -35 -18 3 -21 -3 -32 -17 -32 -14 0 -15 -3 -3 -17 7 -10 9 -15 5
-11 -13 11 -66 -31 -66 -51 0 -12 -10 -21 -27 -24 -25 -5 -40 -16 -101 -68 -8
-6 -12 -22 -9 -36 4 -19 -2 -29 -25 -43 -19 -12 -25 -19 -16 -23 8 -3 -8 -25
-47 -63 -33 -31 -59 -61 -58 -66 2 -4 0 -8 -5 -8 -12 0 -56 -43 -75 -72 -20
-32 -22 -42 -4 -32 12 7 -26 -41 -49 -61 -23 -20 -52 -78 -47 -91 3 -8 -1 -14
-8 -14 -7 0 -9 -3 -6 -6 3 -4 2 -15 -4 -25 -7 -13 -6 -19 1 -19 6 0 8 -5 5
-10 -4 -6 -11 -7 -17 -4 -7 4 -8 2 -4 -4 4 -7 0 -24 -8 -39 -37 -68 -89 -202
-85 -219 1 -5 -3 -22 -10 -39 -7 -16 -14 -54 -17 -83 -2 -29 -6 -58 -10 -63
-3 -5 -8 -26 -10 -47 -2 -20 -9 -68 -14 -107 -5 -38 -12 -180 -15 -315 -3
-135 -7 -279 -9 -320 -2 -53 1 -78 11 -88 7 -8 11 -23 8 -33 -4 -12 3 -28 19
-46 14 -15 26 -31 26 -35 0 -5 6 -8 14 -8 8 0 16 -7 20 -15 3 -8 12 -15 21
-15 8 0 15 -4 15 -10 0 -5 -5 -10 -11 -10 -8 0 -7 -6 2 -17 10 -12 11 -17 2
-20 -7 -2 -10 -10 -7 -16 2 -7 -2 -21 -9 -31 -13 -17 -14 -17 -26 13 -15 34
-21 37 -38 20 -8 -8 -20 -2 -44 24 -33 36 -59 39 -59 7 0 -11 -4 -21 -9 -24
-10 -7 -9 -25 2 -44 5 -6 12 -51 17 -99 12 -109 25 -125 40 -46 18 88 22 92
64 53 20 -19 41 -50 47 -70 6 -19 21 -46 33 -59 17 -20 18 -25 6 -29 -24 -8
-70 -59 -70 -76 0 -9 -4 -16 -10 -16 -5 0 -10 -9 -10 -20 0 -11 4 -20 10 -20
5 0 9 -15 9 -32 0 -18 0 -43 1 -56 0 -22 60 -92 60 -71 0 6 4 8 9 5 5 -3 12
10 15 28 4 19 15 45 26 58 22 26 24 18 11 -30 -11 -36 -6 -39 26 -17 12 8 28
12 37 9 10 -4 16 -1 16 7 1 10 5 9 14 -3 12 -17 14 -17 30 1 10 11 18 38 19
70 1 28 6 51 11 51 5 0 3 6 -3 14 -6 7 -8 21 -5 30 4 11 -1 22 -12 31 -15 11
-16 16 -7 26 10 10 10 16 -2 29 -13 15 -14 19 -1 29 27 22 -10 87 -43 76 -9
-4 -11 0 -7 11 4 9 2 22 -3 28 -6 6 -6 34 -1 66 4 30 8 49 9 43 0 -7 10 -13
21 -13 13 0 20 -7 20 -20 0 -14 6 -20 18 -18 11 2 18 -5 20 -21 3 -17 6 -20
12 -11 13 21 38 4 55 -37 9 -20 21 -41 28 -45 9 -5 9 -14 0 -38 -6 -16 -7 -28
-2 -24 5 3 9 -2 9 -10 0 -9 6 -16 13 -16 15 0 42 -49 32 -58 -3 -3 1 -12 9
-21 7 -9 21 -36 30 -61 33 -87 70 -114 181 -130 90 -14 458 -19 549 -8 32 4
56 5 53 1 -3 -3 1 -13 10 -21 15 -15 14 -17 -8 -22 -15 -4 -23 -12 -21 -23 2
-10 -4 -17 -13 -17 -8 0 -15 -4 -15 -10 0 -30 -21 -50 -52 -50 -13 0 -32 -6
-43 -14 -11 -7 -32 -16 -47 -20 -16 -3 -28 -13 -28 -21 0 -9 6 -12 15 -9 9 4
15 0 15 -10 0 -9 -4 -16 -10 -16 -5 0 -10 -4 -10 -10 0 -13 -37 -50 -50 -50
-5 0 -10 -9 -10 -20 0 -11 -4 -20 -10 -20 -5 0 -10 -7 -10 -15 0 -8 -8 -16
-17 -17 -10 0 -25 -2 -33 -2 -8 -1 -14 -8 -12 -15 2 -8 -3 -11 -13 -8 -9 4
-15 1 -15 -8 0 -8 -7 -15 -15 -15 -12 0 -13 -4 -6 -19 12 -22 5 -32 -16 -24
-9 4 -16 -2 -20 -16 -4 -14 -13 -21 -30 -21 -15 0 -22 -4 -17 -11 3 -6 0 -15
-7 -20 -8 -4 -14 -16 -14 -26 0 -13 -8 -18 -30 -18 -16 -1 -29 -4 -27 -8 1 -4
2 -11 2 -17 0 -5 6 -7 14 -4 8 3 13 -1 11 -13 -3 -30 -16 -53 -31 -53 -8 0
-14 -4 -14 -9 0 -10 54 -7 85 5 17 7 18 5 8 -7 -11 -13 -8 -16 17 -16 38 0 47
-9 32 -33 -12 -20 -1 -37 17 -25 5 3 15 -11 21 -31 7 -19 19 -38 27 -41 9 -4
13 -17 12 -37 -3 -36 8 -76 22 -76 19 0 8 -27 -16 -40 -28 -15 -23 -34 7 -24
17 5 20 3 15 -10 -4 -9 -2 -16 3 -16 6 0 10 -4 10 -10 0 -5 -7 -10 -15 -10
-29 0 2 -37 45 -54 22 -9 40 -20 40 -26 0 -14 -26 -12 -42 3 -19 20 -87 17
-80 -3 2 -8 -2 -6 -11 5 -15 18 -14 21 5 36 14 11 17 18 9 23 -6 4 -18 0 -27
-8 -12 -13 -18 -13 -29 -3 -7 6 -11 16 -8 20 11 18 -9 58 -32 67 -17 6 -28 20
-31 40 -5 25 -9 28 -21 19 -11 -10 -15 -8 -20 9 -3 12 -9 19 -14 16 -5 -3 -7
-10 -4 -15 8 -12 -26 1 -47 18 -20 18 -33 1 -20 -24 5 -10 7 -24 5 -30 -3 -7
2 -13 11 -13 8 0 22 -10 31 -22 12 -18 17 -20 24 -9 5 7 14 10 20 7 6 -4 11 0
11 11 1 17 1 17 14 0 7 -9 18 -17 25 -17 6 0 11 -4 11 -9 0 -5 3 -18 6 -28 6
-15 4 -16 -7 -5 -22 20 -29 14 -29 -25 0 -35 -1 -36 -16 -17 -14 18 -15 17 -9
-17 5 -31 3 -37 -12 -35 -10 0 -20 -9 -24 -24 l-7 -25 -7 23 c-9 26 -25 29
-25 5 -1 -17 -1 -17 -11 0 -5 9 -7 22 -4 27 3 5 0 7 -8 4 -7 -2 -14 -18 -14
-35 0 -31 -17 -58 -30 -45 -4 4 -1 11 6 15 8 5 10 14 6 21 -6 10 -11 9 -21 -5
-12 -17 -15 -17 -39 -1 -14 9 -25 26 -25 37 0 12 -4 17 -11 14 -6 -4 -8 -13
-5 -21 3 -8 1 -14 -4 -14 -6 0 -10 7 -10 15 0 8 -7 15 -15 15 -17 0 -21 16 -5
22 7 2 6 13 -2 30 -13 27 -28 37 -28 18 0 -10 -32 -1 -41 12 -3 5 -14 -1 -24
-12 -17 -18 -17 -20 -2 -14 13 5 16 2 11 -10 -3 -8 -11 -14 -16 -13 -6 1 -13
-4 -15 -10 -3 -7 0 -13 6 -13 15 0 14 -27 -1 -33 -10 -4 -10 -6 0 -6 10 -1 10
-6 1 -22 -6 -12 -7 -19 -1 -15 6 3 12 -18 15 -52 10 -102 14 -126 37 -187 11
-33 22 -67 24 -77 1 -9 8 -23 15 -32 7 -8 11 -23 10 -33 -4 -29 11 -62 32 -68
10 -4 19 -11 19 -16 0 -5 9 -19 20 -31 11 -12 20 -16 20 -10 0 19 16 14 17 -5
2 -30 30 -96 45 -107 8 -6 18 -20 22 -31 3 -13 16 -21 31 -23 25 -2 34 11 15
23 -5 3 -10 11 -10 17 0 6 10 -2 22 -17 16 -21 19 -31 11 -44 -8 -12 -7 -26 1
-46 12 -29 13 -29 18 -7 8 30 28 28 28 -4 0 -19 4 -25 15 -20 9 3 15 0 15 -10
0 -8 9 -24 19 -36 11 -11 18 -25 15 -32 -2 -6 6 -16 18 -21 13 -6 24 -16 24
-22 3 -30 4 -33 13 -30 5 1 18 -9 29 -21 12 -13 25 -21 31 -18 5 3 12 -7 16
-24 6 -28 16 -34 53 -33 6 1 12 -7 12 -17 0 -15 17 -30 35 -29 3 0 30 -25 59
-55 40 -40 60 -53 74 -49 11 2 23 0 26 -6 10 -16 29 -13 23 3 -3 8 1 17 9 20
9 3 12 1 9 -4 -3 -6 -1 -10 4 -10 6 0 11 -6 11 -14 0 -8 14 -17 30 -21 17 -4
30 -13 30 -21 0 -12 19 -19 43 -15 4 0 7 -7 7 -17 0 -12 2 -14 8 -4 9 14 42 6
42 -10 0 -19 26 -34 78 -46 66 -15 186 -16 177 -2 -3 6 -1 10 4 10 6 0 11 -4
11 -9 0 -5 13 -12 28 -16 40 -8 378 11 502 30 123 18 320 63 337 77 7 5 16 7
22 4 5 -3 18 9 30 27 19 29 21 30 21 9 0 -19 4 -22 28 -16 41 10 45 15 26 28
-11 9 -14 18 -9 27 5 7 9 27 9 43 1 22 6 32 21 34 20 4 20 3 1 -11 -20 -14
-16 -54 4 -42 5 3 10 2 10 -4 0 -5 -4 -13 -10 -16 -5 -3 -10 -10 -10 -16 0 -5
9 -4 19 3 10 6 17 18 14 25 -3 7 2 13 11 13 11 0 16 9 16 30 0 17 -4 30 -10
30 -5 0 -10 8 -10 18 0 10 -6 24 -12 31 -11 10 -10 11 4 6 12 -5 18 0 21 17 5
22 5 22 4 -2 -1 -14 2 -31 7 -39 8 -12 10 -22 15 -68 0 -7 5 -13 10 -13 5 0 4
16 -1 38 -6 20 -11 57 -12 82 -1 38 2 45 19 45 17 0 20 7 21 50 0 28 7 64 14
80 8 17 19 54 25 83 9 43 9 52 -2 48 -17 -7 -17 2 2 20 14 14 20 41 16 72 -1
6 3 12 8 12 6 0 8 7 5 15 -4 8 -1 15 4 15 6 0 11 8 11 18 1 89 71 282 137 377
8 11 14 28 14 38 0 10 4 15 10 12 6 -3 7 1 4 9 -4 9 -1 16 6 16 7 0 10 7 6 16
-3 8 -2 13 3 10 13 -9 53 64 48 86 -3 10 -1 16 4 12 5 -3 9 7 9 21 0 15 4 24
10 20 6 -3 10 -1 10 4 0 6 8 11 18 11 16 1 16 2 -2 15 -17 13 -17 15 8 40 15
14 23 32 20 38 -4 7 -4 9 1 5 5 -5 15 2 23 13 11 17 12 23 2 29 -13 8 -5 50
10 50 5 0 9 8 8 17 0 47 11 122 21 142 7 12 10 38 6 58 -3 19 -1 41 4 47 5 6
10 36 12 66 1 30 8 67 16 82 7 15 13 39 13 53 0 14 7 40 16 57 9 17 13 40 10
54 -4 13 -3 24 2 24 4 0 14 27 21 61 8 33 21 68 30 77 16 15 18 20 20 55 0 9
8 17 16 17 8 0 15 8 15 18 0 10 4 22 9 28 13 13 34 83 38 124 2 19 6 68 9 108
6 72 17 91 28 50 14 -55 50 59 65 203 14 143 5 184 -42 191 -12 2 -21 9 -19
17 1 7 -3 19 -9 27 -9 11 -9 14 0 14 8 0 7 6 -3 16 -9 8 -16 20 -16 25 0 5 -7
9 -16 9 -9 0 -13 5 -10 13 3 6 9 20 12 30 4 9 10 17 15 17 5 0 9 12 9 26 0 14
4 23 8 20 12 -7 13 2 12 311 0 218 -4 297 -16 349 -8 36 -13 68 -11 71 3 2 -2
25 -10 51 -13 41 -18 77 -26 197 -2 17 -9 41 -16 53 -7 13 -10 26 -7 29 5 5
-3 17 -37 54 -9 10 -16 23 -15 27 2 5 -22 34 -52 66 -66 69 -79 88 -53 80 10
-3 3 4 -14 16 -18 12 -33 31 -33 41 0 10 -3 19 -7 19 -12 0 -43 59 -43 81 0
10 -3 19 -7 19 -9 0 -33 48 -33 66 0 7 -8 18 -17 23 -10 6 -14 11 -9 11 5 0
-3 9 -18 21 -14 11 -24 24 -21 29 3 4 -4 10 -15 13 -11 3 -20 12 -20 21 0 9
-4 16 -10 16 -5 0 -10 7 -10 15 0 8 -4 15 -10 15 -5 0 -26 16 -46 35 -32 32
-47 40 -58 33 -2 -2 -12 4 -22 13 -11 9 -26 19 -34 23 -37 16 -75 45 -73 55 2
6 0 10 -5 9 -10 -3 -80 35 -120 65 -20 15 -41 23 -52 20 -13 -4 -20 0 -20 9 0
16 -40 38 -70 38 -11 0 -20 5 -20 11 0 5 -5 7 -10 4 -6 -3 -14 5 -20 19 -5 14
-17 26 -25 26 -10 0 -13 5 -9 13 4 6 4 9 0 5 -5 -4 -20 -2 -35 3 -21 7 -23 7
-11 -3 8 -7 21 -21 29 -31 13 -17 12 -17 -20 1 -19 11 -48 23 -66 27 -18 3
-43 17 -55 31 -13 13 -28 24 -35 24 -6 0 -13 5 -15 11 -2 6 -40 19 -83 29 -69
16 -137 36 -195 58 -10 3 -4 7 15 11 28 6 25 8 -33 24 -35 10 -84 22 -110 27
-26 5 -74 15 -107 24 -61 16 -88 19 -96 12z m304 -83 c-7 -2 -19 -2 -25 0 -7
3 -2 5 12 5 14 0 19 -2 13 -5z m621 -279 c7 -19 2 -18 -19 6 -16 17 -16 20 -3
15 9 -4 19 -13 22 -21z m36 -8 c0 -3 -4 -8 -10 -11 -5 -3 -10 -1 -10 4 0 6 5
11 10 11 6 0 10 -2 10 -4z m-1560 -269 c106 3 216 2 335 -3 174 -7 188 -9 213
-23 13 -7 30 -10 38 -7 8 3 24 1 37 -4 24 -9 94 -29 202 -56 39 -9 78 -22 87
-28 11 -7 24 -7 40 1 13 6 32 7 44 3 12 -5 44 -2 75 5 30 8 72 18 94 24 171
43 225 51 312 45 48 -3 101 -13 117 -20 16 -8 44 -14 61 -14 18 0 38 -7 45
-15 7 -8 19 -15 27 -15 18 0 113 -68 113 -80 0 -5 9 -11 20 -15 11 -3 19 -9
17 -13 -1 -4 8 -19 21 -32 53 -58 95 -117 109 -152 8 -21 21 -38 28 -38 8 0
19 -16 25 -35 6 -19 15 -35 20 -35 4 0 13 -24 20 -52 6 -29 20 -75 31 -101 16
-38 18 -52 8 -63 -9 -11 -8 -14 5 -14 18 0 21 -11 5 -27 -7 -7 -6 -15 5 -26
18 -17 21 -32 6 -22 -5 3 -11 -2 -12 -12 -2 -32 -3 -38 -10 -48 -4 -6 -6 -36
-5 -67 0 -31 -4 -63 -11 -70 -6 -8 -9 -18 -5 -22 4 -4 8 -31 9 -59 1 -37 -4
-56 -15 -64 -13 -10 -13 -14 -3 -21 7 -5 12 -13 11 -18 -1 -5 -1 -11 1 -14 8
-22 8 -80 0 -85 -13 -8 -13 -45 0 -45 6 0 10 -7 10 -15 0 -8 -6 -15 -12 -15
-8 0 -9 -3 -3 -8 35 -26 41 -72 9 -72 -8 0 -14 -4 -14 -10 0 -5 5 -10 10 -10
6 0 9 -12 9 -27 -1 -17 -3 -21 -6 -10 -5 20 -8 21 -32 5 -11 -7 -16 -19 -13
-30 2 -10 -1 -18 -7 -18 -14 0 -14 33 0 47 14 14 3 33 -19 32 -11 0 -12 -3 -4
-6 20 -8 14 -20 -13 -27 -14 -4 -25 -12 -25 -19 0 -23 -25 -67 -37 -67 -7 0
-16 -8 -22 -17 -5 -10 -13 -15 -16 -11 -4 4 -17 -4 -29 -16 -20 -22 -25 -23
-86 -15 -92 12 -161 29 -187 45 -14 9 -24 10 -28 3 -4 -5 -16 -7 -28 -4 -14 4
-9 -2 13 -16 32 -21 33 -24 13 -27 -20 -3 -70 21 -84 41 -3 4 -21 8 -40 9 -19
0 -44 6 -56 14 -12 8 -50 16 -85 18 -60 4 -80 9 -172 36 -34 10 -40 9 -58 -10
-15 -15 -23 -18 -33 -10 -16 14 -45 2 -46 -19 -1 -14 -2 -14 -6 2 -7 28 -36
17 -47 -18 -6 -22 -86 -58 -103 -46 -5 3 -12 14 -16 24 -9 25 -24 21 -32 -10
-3 -15 -15 -33 -26 -41 -10 -7 -19 -19 -19 -27 0 -15 -34 -38 -42 -29 -3 2
-10 -2 -17 -9 -13 -17 -61 -10 -61 8 0 7 -7 15 -15 19 -8 3 -15 14 -15 25 0
11 -9 22 -20 26 -11 3 -28 17 -38 30 -15 19 -29 24 -68 25 -27 1 -74 2 -104 3
-42 2 -54 -1 -52 -12 2 -10 -3 -12 -20 -6 -85 26 -226 25 -221 -2 3 -13 -28
-25 -67 -28 -14 -2 -30 -3 -36 -4 -18 -2 -26 -33 -12 -42 20 -13 -2 -26 -56
-34 -33 -4 -46 -3 -41 4 3 6 1 11 -5 11 -6 0 -13 -6 -15 -12 -3 -8 -26 -14
-58 -15 -28 0 -83 -4 -121 -8 -47 -4 -66 -3 -61 4 3 6 -1 11 -9 11 -9 0 -16
-4 -16 -9 0 -5 -22 -8 -49 -8 -30 1 -59 -6 -75 -16 -28 -19 -76 -23 -76 -7 0
16 -27 12 -34 -5 -7 -18 -47 -20 -65 -2 -11 10 -13 9 -8 -5 10 -28 -44 -24
-62 5 -16 24 -15 108 0 118 5 3 10 49 12 102 1 53 5 97 8 97 12 0 22 55 20
108 -2 28 1 52 6 52 14 0 3 74 -14 87 -9 7 -14 31 -15 72 0 34 -5 61 -10 61
-6 0 -8 7 -5 15 4 8 2 17 -4 21 -5 3 -7 14 -4 25 4 10 3 24 0 30 -11 17 -12
113 -2 127 6 8 5 12 -3 12 -14 0 -9 112 8 170 6 19 17 61 26 92 45 165 213
417 302 454 18 8 35 18 38 22 3 5 27 17 53 26 26 10 65 26 86 37 20 11 45 18
55 15 9 -3 35 3 57 13 24 12 50 16 65 13 14 -4 50 -6 80 -5z m2120 -1562 c0
-9 -6 -12 -15 -9 -8 4 -15 10 -15 15 0 5 7 9 15 9 8 0 15 -7 15 -15z m-1310
-119 c0 -3 -4 -8 -10 -11 -5 -3 -10 -1 -10 4 0 6 5 11 10 11 6 0 10 -2 10 -4z
m-1806 -131 c-4 -8 -8 -15 -10 -15 -2 0 -4 7 -4 15 0 8 4 15 10 15 5 0 7 -7 4
-15z m1771 -131 c13 -11 29 -34 35 -50 10 -24 41 -194 55 -297 2 -15 11 -34
20 -43 8 -8 15 -26 15 -40 0 -14 7 -27 15 -30 8 -4 13 -10 10 -14 -3 -5 -1
-11 5 -15 5 -3 10 -17 10 -31 0 -13 4 -24 9 -24 12 0 34 -66 27 -79 -3 -5 1
-14 9 -21 17 -14 20 -66 6 -104 -13 -33 -88 -106 -134 -131 -29 -15 -41 -17
-55 -9 -34 22 -77 25 -108 9 -43 -22 -45 -22 -170 36 -43 20 -89 25 -98 11 -3
-4 -21 -6 -40 -4 -43 5 -51 24 -35 85 9 36 23 56 70 98 45 39 60 61 65 88 7
38 27 87 75 185 16 33 29 66 29 74 0 8 6 28 14 45 7 18 26 82 41 142 15 61 34
118 43 127 19 23 55 19 87 -8z m1425 -150 c0 -8 -4 -12 -10 -9 -5 3 -10 10
-10 16 0 5 5 9 10 9 6 0 10 -7 10 -16z m30 2 c0 -3 -4 -8 -10 -11 -5 -3 -10
-1 -10 4 0 6 5 11 10 11 6 0 10 -2 10 -4z m-28 -58 c-7 -7 -12 -8 -12 -2 0 6
3 14 7 17 3 4 9 5 12 2 2 -3 -1 -11 -7 -17z m-3012 -83 c0 6 5 2 11 -8 16 -27
4 -32 -21 -7 -11 11 -18 26 -14 32 5 8 10 5 15 -8 4 -10 8 -14 9 -9z m1208
-25 c13 -11 21 -24 18 -29 -3 -5 1 -11 9 -15 18 -7 20 -59 3 -78 -7 -7 -19
-25 -27 -40 -28 -55 -158 -85 -411 -94 -128 -5 -190 -4 -229 6 -43 10 -50 15
-39 25 19 18 187 75 203 69 7 -3 23 0 35 6 12 6 42 14 67 17 50 5 92 23 208
87 44 25 88 45 98 46 9 0 17 5 17 10 0 16 23 11 48 -10z m-626 -18 c21 -21 -4
-33 -46 -21 -32 9 -41 8 -54 -5 -15 -15 -15 -16 3 -16 11 0 26 -4 34 -9 11 -7
8 -14 -13 -32 -14 -12 -26 -26 -26 -31 0 -10 61 2 78 15 7 5 16 7 20 3 4 -4
-2 -14 -13 -21 -11 -8 -26 -19 -33 -26 -7 -6 -30 -11 -50 -11 -54 0 -59 1 -42
12 11 8 7 9 -15 4 -16 -3 -38 -6 -47 -7 -10 -1 -18 -5 -18 -9 0 -4 -6 -8 -14
-8 -15 0 -30 27 -27 49 1 7 -2 10 -7 7 -5 -3 -12 7 -15 22 -5 20 0 32 15 45
11 10 23 15 26 13 3 -3 -6 -15 -19 -26 l-24 -21 28 17 c15 9 27 20 27 25 0 5
9 4 21 -3 17 -11 22 -10 33 4 6 9 21 16 31 15 11 -1 20 4 21 11 1 6 2 15 3 18
2 11 111 -2 123 -14z m1575 -14 c24 -10 43 -23 43 -27 0 -5 23 -9 51 -10 29 0
57 -6 65 -11 7 -6 18 -10 26 -9 32 5 99 -15 108 -32 9 -15 18 -17 60 -12 35 4
55 2 67 -8 14 -12 16 -12 8 0 -6 11 -3 13 13 9 12 -3 23 -1 25 5 3 9 12 8 32
-1 24 -11 26 -15 14 -23 -25 -18 61 1 90 19 14 9 36 28 48 41 27 31 40 22 23
-18 -20 -48 -149 -90 -332 -106 -34 -3 -83 -8 -108 -10 -66 -7 -287 12 -346
30 -45 13 -52 19 -58 46 -10 52 -8 62 14 56 11 -3 20 -1 20 4 0 5 -7 9 -15 9
-8 0 -15 4 -15 9 0 21 13 41 26 41 8 0 17 7 20 15 8 19 56 12 121 -17z m-1532
-8 c-3 -5 -11 -10 -16 -10 -6 0 -7 5 -4 10 3 6 11 10 16 10 6 0 7 -4 4 -10z
m2188 -180 c4 0 5 5 2 10 -3 6 -1 10 5 10 7 0 10 -7 7 -15 -4 -8 -1 -17 5 -21
7 -4 8 -24 2 -58 -4 -28 -7 -64 -6 -81 0 -25 -1 -27 -8 -10 -8 18 -9 18 -10
-5 0 -22 -2 -23 -11 -8 -13 23 -39 11 -39 -18 0 -13 -4 -24 -9 -24 -9 0 -24
38 -22 53 1 9 -35 -9 -43 -21 -7 -12 7 -29 28 -33 18 -4 37 -31 19 -28 -4 1
-18 -2 -31 -6 -18 -6 -22 -14 -20 -41 1 -19 7 -34 14 -34 15 0 30 -19 39 -50
7 -24 7 -24 -12 -8 -23 21 -43 8 -43 -28 0 -13 -4 -26 -10 -29 -5 -3 -10 1
-10 9 0 9 -5 16 -11 16 -6 0 -8 8 -4 19 6 21 -13 40 -24 23 -4 -6 -26 -14 -49
-18 -32 -5 -42 -11 -42 -26 0 -16 -2 -17 -14 -6 -8 7 -14 15 -14 18 1 27 -5
35 -29 37 -15 0 -35 11 -44 22 -10 12 -30 22 -46 23 -29 2 -83 43 -83 64 0 6
-15 15 -32 19 l-33 7 25 10 c20 8 22 11 9 17 -8 3 -28 16 -43 28 -23 19 -26
26 -17 37 10 12 9 17 -6 24 -10 5 -24 7 -31 5 -7 -3 -16 4 -19 15 -3 13 -11
18 -23 15 -18 -5 -48 32 -36 44 2 3 78 6 168 8 90 2 215 10 278 19 130 18 222
22 238 12 8 -5 10 -1 5 11 -5 15 -3 16 8 6 7 -7 17 -13 22 -13z m-733 -34 c0
-3 -4 -8 -10 -11 -5 -3 -10 -1 -10 4 0 6 5 11 10 11 6 0 10 -2 10 -4z m-1000
-26 c0 -5 -4 -10 -9 -10 -6 0 -13 5 -16 10 -3 6 1 10 9 10 9 0 16 -4 16 -10z
m1635 -250 c3 -5 1 -10 -4 -10 -6 0 -11 5 -11 10 0 6 2 10 4 10 3 0 8 -4 11
-10z m-1598 -66 c8 -20 -13 -42 -27 -28 -12 12 -3 44 11 44 5 0 12 -7 16 -16z
m1603 -34 c0 -5 -4 -10 -10 -10 -5 0 -10 5 -10 10 0 6 5 10 10 10 6 0 10 -4
10 -10z m-133 -32 c-3 -7 -5 -2 -5 12 0 14 2 19 5 13 2 -7 2 -19 0 -25z m119
-33 c0 -19 -4 -35 -8 -35 -11 0 -21 47 -13 59 12 21 21 11 21 -24z m-80 -2
c-10 -10 -19 5 -10 18 6 11 8 11 12 0 2 -7 1 -15 -2 -18z m-11 -41 c-8 -8 -25
10 -19 20 4 6 9 5 15 -3 4 -7 6 -15 4 -17z m40 18 c3 -5 1 -10 -4 -10 -6 0
-11 5 -11 10 0 6 2 10 4 10 3 0 8 -4 11 -10z m58 -55 c4 -6 7 -3 5 7 -2 9 0
17 5 17 32 3 37 -1 37 -29 0 -16 -4 -30 -9 -30 -5 0 -13 -9 -16 -20 -6 -17 -8
-18 -21 -6 -8 8 -14 20 -14 27 0 9 -3 9 -14 0 -18 -15 -29 10 -20 45 5 21 9
23 23 12 9 -7 20 -17 24 -23z m-19 -187 c-2 -3 -12 -5 -22 -3 -9 2 -23 4 -30
4 -8 1 -12 7 -9 14 2 6 11 11 20 9 8 -1 19 3 23 10 5 8 10 6 14 -8 4 -10 6
-22 4 -26z m-118 -79 c-3 -20 -6 -40 -7 -45 -3 -19 1 -34 12 -34 5 0 7 5 3 12
-5 7 -3 8 6 3 10 -6 7 -12 -11 -26 -30 -23 -94 -25 -103 -3 -8 21 34 96 50 90
16 -6 23 14 17 50 l-6 29 22 -20 c18 -15 21 -27 17 -56z m34 29 c0 -18 -17 -7
-29 19 -13 28 -13 28 8 9 12 -11 21 -23 21 -28z m30 -48 c0 -5 -4 -10 -9 -10
-6 0 -13 5 -16 10 -3 6 1 10 9 10 9 0 16 -4 16 -10z m-160 -145 c0 -5 -5 -3
-10 5 -5 8 -10 20 -10 25 0 6 5 3 10 -5 5 -8 10 -19 10 -25z m-2003 -10 c9
-25 -4 -29 -17 -6 -7 15 -7 21 0 21 6 0 13 -7 17 -15z m603 -24 c0 -14 5 -33
10 -41 7 -11 9 -7 7 15 -1 20 2 29 11 28 6 -2 12 1 12 5 0 5 14 9 31 10 31 1
52 -24 31 -37 -8 -5 -5 -12 8 -24 24 -20 26 -37 5 -37 -8 0 -15 -6 -15 -13 0
-19 26 -52 42 -52 8 0 12 -10 11 -25 -1 -15 0 -18 3 -7 6 20 8 21 34 5 18 -12
18 -13 -8 -30 l-27 -17 31 -11 c20 -7 34 -22 43 -43 16 -42 58 -74 101 -77 53
-4 157 1 143 7 -21 8 -15 25 6 18 11 -3 22 -1 26 5 3 5 26 10 50 10 38 0 43 3
38 18 -5 14 -3 14 14 -3 11 -11 18 -24 16 -28 -3 -5 3 -7 13 -5 13 3 18 11 17
26 -2 12 2 22 7 22 6 0 10 -9 10 -20 0 -17 3 -19 19 -8 15 9 26 9 43 1 42 -21
64 -20 96 2 l33 22 -31 13 c-31 13 -41 40 -15 40 8 0 15 -5 15 -11 0 -6 7 -8
15 -5 9 3 18 -1 22 -9 4 -12 9 -13 19 -4 8 6 14 18 14 25 0 8 7 14 16 14 8 0
12 -4 9 -10 -3 -5 -1 -10 4 -10 6 0 11 7 11 15 0 8 -7 15 -15 15 -8 0 -15 5
-15 10 0 18 -18 10 -23 -10 -3 -11 -10 -20 -17 -20 -6 0 -8 4 -5 10 3 6 -1 7
-9 4 -9 -3 -22 1 -31 9 -21 22 -19 29 6 15 17 -11 22 -10 35 6 16 23 19 50 4
41 -11 -7 -14 18 -4 28 10 9 32 -17 36 -43 3 -27 28 -40 28 -16 0 9 7 16 15
16 8 0 15 8 16 18 0 13 2 12 9 -5 11 -27 27 -30 33 -5 2 9 3 4 1 -11 -3 -19 0
-26 8 -21 18 11 -3 -19 -24 -34 -10 -7 -18 -24 -18 -38 0 -28 3 -29 35 -8 45
29 82 25 76 -9 -1 -5 4 -7 11 -4 7 2 21 0 30 -5 13 -6 16 -16 11 -41 -4 -17
-13 -38 -20 -46 -8 -7 -12 -20 -9 -27 3 -8 1 -14 -4 -14 -6 0 -10 -22 -10 -50
0 -49 -5 -55 -37 -51 -8 1 -13 -10 -14 -26 -1 -27 -1 -27 -8 -4 -6 22 -7 22
-23 -13 -10 -20 -13 -36 -8 -36 20 0 10 -16 -11 -17 -11 -1 -35 -17 -52 -35
-18 -19 -39 -32 -48 -30 -16 3 -79 -51 -79 -67 0 -5 -13 -12 -30 -16 -16 -4
-30 -10 -30 -15 0 -13 -35 -18 -83 -10 -25 3 -53 3 -61 -2 -11 -6 -26 -2 -47
13 -28 20 -36 21 -102 12 -45 -7 -76 -7 -84 -1 -6 5 -17 8 -25 7 -7 -2 -29 1
-48 6 -19 5 -43 8 -52 6 -10 -1 -18 3 -18 8 0 6 -3 10 -7 10 -31 -5 -55 4 -62
24 -9 22 -9 22 -21 -6 -12 -25 -15 -26 -31 -11 -10 9 -15 22 -13 29 4 9 0 12
-14 9 -13 -4 -28 5 -48 29 -15 19 -34 33 -40 30 -7 -2 -15 0 -18 6 -4 6 -13 8
-21 4 -14 -5 -19 6 -16 32 0 6 -13 16 -29 23 -17 8 -30 21 -30 32 0 9 -9 24
-21 32 -19 12 -20 18 -11 51 11 37 5 46 -15 26 -9 -9 -18 -4 -38 17 -23 25
-29 27 -47 15 -27 -17 -30 -11 -13 23 8 16 15 38 15 51 0 28 22 47 51 43 29
-4 48 39 21 49 -9 4 -20 11 -24 17 -4 6 -12 5 -21 -3 -12 -9 -16 -9 -20 1 -3
7 -5 2 -4 -11 3 -33 -17 -37 -31 -6 -12 26 -8 50 7 41 10 -6 8 25 -3 42 -11
18 -6 21 27 15 21 -4 27 -11 28 -32 l2 -26 4 28 c5 32 6 32 38 11 28 -18 23
-38 -7 -28 -15 4 -19 2 -16 -12 1 -9 9 -19 17 -22 8 -3 11 0 7 7 -4 6 -2 11 3
11 6 0 11 -5 11 -11 0 -5 5 -7 10 -4 6 3 10 17 10 30 0 19 4 23 17 18 9 -4 14
-2 10 3 -3 6 -2 16 3 24 6 10 2 18 -11 28 -10 7 -19 18 -19 24 0 6 10 3 21 -8
22 -19 22 -19 14 6 -5 14 -8 30 -8 37 0 8 -8 9 -24 2 l-23 -9 21 29 c15 21 29
28 56 29 20 1 41 6 46 11 16 16 37 0 37 -28z m268 -3 c16 -14 15 -28 -3 -28
-7 0 -18 -6 -22 -14 -4 -8 -19 -16 -33 -18 -14 -1 -24 -7 -23 -13 2 -15 -28
-45 -45 -45 -11 0 -13 8 -8 36 4 21 3 41 -4 48 -22 28 -2 41 63 43 34 0 68 -4
75 -9z m-40 -96 c2 -7 -2 -10 -12 -6 -9 3 -16 11 -16 16 0 13 23 5 28 -10z
m-711 -34 c-3 -8 -6 -5 -6 6 -1 11 2 17 5 13 3 -3 4 -12 1 -19z m1266 -98 c3
-11 2 -18 -1 -17 -4 2 -15 7 -25 10 -10 4 -15 11 -12 17 10 17 32 11 38 -10z
m-228 -29 c3 -5 1 -12 -5 -16 -5 -3 -10 1 -10 9 0 18 6 21 15 7z m-201 -62
c-10 -16 -24 -9 -24 12 0 18 2 19 15 9 8 -7 12 -16 9 -21z m81 11 c-3 -5 -10
-10 -16 -10 -5 0 -9 5 -9 10 0 6 7 10 16 10 8 0 12 -4 9 -10z m-1205 -361 c0
-5 -4 -9 -8 -9 -9 0 -32 44 -32 58 1 10 40 -38 40 -49z m20 -29 c0 -5 -4 -10
-10 -10 -5 0 -10 5 -10 10 0 6 5 10 10 10 6 0 10 -4 10 -10z m57 -92 c-3 -8
-6 -5 -6 6 -1 11 2 17 5 13 3 -3 4 -12 1 -19z m63 -39 c0 -5 -4 -9 -10 -9 -5
0 -10 7 -10 16 0 8 5 12 10 9 6 -3 10 -10 10 -16z m2074 -484 c-4 -8 -10 -13
-15 -10 -4 3 -6 12 -3 20 4 8 10 13 15 10 4 -3 6 -12 3 -20z m-84 -36 c0 -3
-7 -6 -15 -6 -9 0 -15 10 -15 26 0 24 1 24 15 5 8 -10 15 -22 15 -25z m-1490
-11 c0 -13 -18 -9 -34 8 -9 8 -16 20 -16 25 0 11 49 -22 50 -33z m1483 -43
c-7 -21 -12 -19 -10 4 0 11 5 18 9 15 4 -3 5 -11 1 -19z m-1213 -65 c0 -5 -2
-10 -4 -10 -3 0 -8 5 -11 10 -3 6 -1 10 4 10 6 0 11 -4 11 -10z"/>
<path d="M4290 3810 c0 -5 4 -10 9 -10 6 0 13 5 16 10 3 6 -1 10 -9 10 -9 0
-16 -4 -16 -10z"/>
<path d="M2530 3495 c0 -8 4 -15 10 -15 5 0 7 7 4 15 -4 8 -8 15 -10 15 -2 0
-4 -7 -4 -15z"/>
<path d="M2210 3430 c0 -5 5 -10 10 -10 6 0 10 5 10 10 0 6 -4 10 -10 10 -5 0
-10 -4 -10 -10z"/>
<path d="M1939 3368 c0 -2 -2 -11 -4 -21 -3 -15 -1 -16 11 -6 7 6 11 15 8 20
-5 9 -13 12 -15 7z"/>
<path d="M4232 2469 c8 -23 13 -27 19 -17 13 20 11 26 -11 38 -18 10 -18 8 -8
-21z"/>
<path d="M4153 2463 c-15 -5 -18 -33 -4 -33 8 0 25 30 19 35 -2 1 -9 0 -15 -2z"/>
<path d="M3980 1724 c0 -8 5 -12 10 -9 6 3 10 10 10 16 0 5 -4 9 -10 9 -5 0
-10 -7 -10 -16z"/>
<path d="M2438 1548 c9 -9 15 -9 24 0 9 9 7 12 -12 12 -19 0 -21 -3 -12 -12z"/>
<path d="M3468 1373 c7 -3 16 -2 19 1 4 3 -2 6 -13 5 -11 0 -14 -3 -6 -6z"/>
<path d="M2371 1274 c0 -11 3 -14 6 -6 3 7 2 16 -1 19 -3 4 -6 -2 -5 -13z"/>
<path d="M3470 1271 c0 -5 5 -13 10 -16 6 -3 10 -2 10 4 0 5 -4 13 -10 16 -5
3 -10 2 -10 -4z"/>
<path d="M2290 1240 c0 -5 5 -10 11 -10 5 0 7 5 4 10 -3 6 -8 10 -11 10 -2 0
-4 -4 -4 -10z"/>
<path d="M2696 1531 c-4 -7 -5 -15 -2 -18 9 -9 19 4 14 18 -4 11 -6 11 -12 0z"/>
<path d="M3536 5485 c7 -17 20 -20 28 -6 3 5 -1 12 -10 15 -22 9 -24 8 -18 -9z"/>
<path d="M3576 5472 c-3 -6 -1 -14 5 -17 14 -9 20 -2 10 14 -6 8 -11 9 -15 3z"/>
<path d="M5965 3154 c-18 -24 -28 -27 -86 -29 -78 -3 -135 -20 -143 -42 -4 -9
5 -33 21 -56 52 -75 212 -202 230 -183 11 10 15 226 6 284 l-8 54 -20 -28z"/>
<path d="M1296 2435 c8 -34 12 -41 20 -33 3 4 -2 19 -10 35 l-16 28 6 -30z"/>
<path d="M1470 1945 c0 -8 2 -15 4 -15 2 0 6 7 10 15 3 8 1 15 -4 15 -6 0 -10
-7 -10 -15z"/>
<path d="M1500 1889 c0 -5 5 -7 10 -4 6 3 10 8 10 11 0 2 -4 4 -10 4 -5 0 -10
-5 -10 -11z"/>
<path d="M1900 1884 c0 -8 5 -12 10 -9 6 4 8 11 5 16 -9 14 -15 11 -15 -7z"/>
<path d="M1550 1789 c0 -5 5 -7 10 -4 6 3 10 8 10 11 0 2 -4 4 -10 4 -5 0 -10
-5 -10 -11z"/>
<path d="M1546 1716 c3 -9 13 -16 22 -16 8 0 13 1 11 3 -2 1 -12 9 -22 16 -15
12 -17 12 -11 -3z"/>
<path d="M1875 1690 c3 -5 8 -10 11 -10 2 0 4 5 4 10 0 6 -5 10 -11 10 -5 0
-7 -4 -4 -10z"/>
<path d="M310 1684 c0 -26 150 -288 214 -373 l25 -34 -6 36 c-10 65 5 126 43
165 52 53 46 70 -36 97 -81 26 -171 66 -207 94 -18 13 -33 19 -33 15z"/>
<path d="M1560 1655 c-8 -9 -8 -15 -2 -15 12 0 26 19 19 26 -2 2 -10 -2 -17
-11z"/>
<path d="M1903 1663 c-21 -8 -15 -22 7 -16 11 3 20 9 20 14 0 10 -8 10 -27 2z"/>
<path d="M1995 1580 c-3 -5 -4 -10 -1 -10 2 0 12 -3 20 -6 12 -5 15 -2 10 10
-7 18 -20 21 -29 6z"/>
<path d="M1562 1558 c-17 -17 -15 -29 3 -22 9 4 15 0 15 -10 0 -9 4 -16 8 -16
5 0 9 14 9 30 0 31 -14 39 -35 18z"/>
<path d="M2053 1540 c1 -12 8 -20 19 -20 16 0 17 3 8 20 -6 11 -15 20 -20 20
-5 0 -8 -9 -7 -20z"/>
<path d="M1641 1530 c0 -8 4 -22 9 -30 12 -18 12 -2 0 25 -6 13 -9 15 -9 5z"/>
<path d="M1940 1508 c0 -9 5 -20 10 -23 13 -8 13 5 0 25 -8 13 -10 13 -10 -2z"/>
<path d="M1560 1490 c0 -5 5 -10 10 -10 6 0 10 5 10 10 0 6 -4 10 -10 10 -5 0
-10 -4 -10 -10z"/>
<path d="M1713 1492 c-7 -4 -10 -16 -8 -27 2 -11 4 -24 4 -30 1 -5 9 -1 19 9
12 13 14 20 5 23 -19 7 -16 21 5 26 12 3 13 5 2 6 -8 0 -20 -3 -27 -7z"/>
<path d="M2065 1480 c3 -5 8 -10 11 -10 2 0 4 5 4 10 0 6 -5 10 -11 10 -5 0
-7 -4 -4 -10z"/>
<path d="M1900 1446 c0 -2 9 -6 20 -9 11 -3 18 -1 14 4 -5 9 -34 13 -34 5z"/>
<path d="M1770 1420 c0 -5 5 -10 11 -10 5 0 7 5 4 10 -3 6 -8 10 -11 10 -2 0
-4 -4 -4 -10z"/>
<path d="M1975 520 c-3 -5 -1 -10 4 -10 6 0 11 5 11 10 0 6 -2 10 -4 10 -3 0
-8 -4 -11 -10z"/>
<path d="M4137 463 c8 -22 152 -163 166 -163 19 0 77 42 71 51 -17 28 -200
129 -233 129 -6 0 -7 -8 -4 -17z"/>
<path d="M2011 424 c0 -11 3 -14 6 -6 3 7 2 16 -1 19 -3 4 -6 -2 -5 -13z"/>
<path d="M2280 202 c0 -5 9 -17 20 -27 23 -21 27 -4 4 19 -17 18 -24 20 -24 8z"/>
<path d="M2390 124 c0 -18 106 -68 126 -60 8 3 14 2 14 -2 0 -4 11 -8 25 -8
14 -1 25 2 25 7 0 5 -9 9 -20 9 -10 0 -24 9 -30 20 -6 11 -16 20 -23 18 -7 -1
-22 2 -35 6 -14 5 -28 3 -36 -3 -10 -9 -15 -7 -19 9 -6 23 -27 27 -27 4z"/>
<path d="M2610 50 c0 -5 5 -10 10 -10 6 0 10 5 10 10 0 6 -4 10 -10 10 -5 0
-10 -4 -10 -10z"/>
</g>
</svg>
