<?xml version="1.0" encoding="UTF-8"?>
<svg xmlns="http://www.w3.org/2000/svg" version="1.1" width="2048px" height="2048px" style="shape-rendering:geometricPrecision; text-rendering:geometricPrecision; image-rendering:optimizeQuality; fill-rule:evenodd; clip-rule:evenodd" xmlns:xlink="http://www.w3.org/1999/xlink">
<g><path style="opacity:0.997" fill="#312e81" d="M 1571.5,500.5 C 1572.52,467.734 1562.36,439.067 1541,414.5C 1516.43,388.618 1487.59,368.785 1454.5,355C 1379.94,323.358 1302.6,301.358 1222.5,289C 1144.84,278.78 1066.84,273.28 988.5,272.5C 941.822,272.813 895.156,273.647 848.5,275C 815.642,278.354 782.975,283.021 750.5,289C 711.032,297.299 680.198,318.132 658,351.5C 649.866,366.101 642.533,381.101 636,396.5C 604.555,589.836 572.888,783.17 541,976.5C 539.497,993.473 539.163,1010.47 540,1027.5C 546.725,1061.28 557.725,1093.62 573,1124.5C 583.081,1142.33 593.414,1160 604,1177.5C 624.312,1205.44 643.645,1234.11 662,1263.5C 675.9,1288.86 689.234,1314.53 702,1340.5C 737.461,1444.43 773.794,1548.1 811,1651.5C 816.548,1660.38 824.048,1667.21 833.5,1672C 843.861,1675.84 854.528,1678.51 865.5,1680C 903.469,1682.23 941.469,1682.9 979.5,1682C 990.38,1679.35 1001.38,1677.35 1012.5,1676C 1019.24,1673.55 1025.07,1669.71 1030,1664.5C 1034.52,1658.5 1038.36,1652.17 1041.5,1645.5C 1029.45,1699.35 1016.62,1753.02 1003,1806.5C 993.807,1832.21 982.474,1856.88 969,1880.5C 964.201,1887.93 959.034,1895.1 953.5,1902C 942.354,1903.13 931.187,1903.97 920,1904.5C 914.245,1903.84 908.412,1903.51 902.5,1903.5C 859.331,1904.39 816.164,1905.39 773,1906.5C 758.817,1906.44 744.65,1905.94 730.5,1905C 721.401,1904.28 713.735,1900.62 707.5,1894C 700.968,1887.8 694.801,1881.3 689,1874.5C 678.746,1856.33 668.746,1837.99 659,1819.5C 629.947,1743.01 603.281,1665.68 579,1587.5C 564.864,1546.76 550.53,1506.09 536,1465.5C 525.582,1449 514.915,1432.66 504,1416.5C 478.597,1384.7 455.93,1351.03 436,1315.5C 423.723,1296.89 411.057,1278.56 398,1260.5C 392.031,1249.9 385.698,1239.57 379,1229.5C 359.489,1192.96 347.156,1153.96 342,1112.5C 340.082,1081.83 340.082,1051.16 342,1020.5C 374.89,818.162 407.89,615.829 441,413.5C 445.046,396.649 449.712,379.983 455,363.5C 478.677,318.156 512.844,282.989 557.5,258C 597.895,235.401 641.229,223.401 687.5,222C 787.66,217.653 887.826,213.486 988,209.5C 1051.68,212.271 1115.18,217.437 1178.5,225C 1268.37,235.049 1354.7,258.049 1437.5,294C 1477.74,311.852 1513.57,336.018 1545,366.5C 1562.4,387.992 1572.07,412.659 1574,440.5C 1574.91,460.2 1574.58,479.867 1573,499.5C 1572.62,500.056 1572.12,500.389 1571.5,500.5 Z"/></g>
<g><path style="opacity:0.008" fill="#2a208e" d="M 407.5,221.5 C 407.897,220.475 408.563,220.308 409.5,221C 408.906,221.464 408.239,221.631 407.5,221.5 Z"/></g>
<g><path style="opacity:1" fill="#f49d0b" d="M 988.5,272.5 C 1066.84,273.28 1144.84,278.78 1222.5,289C 1302.6,301.358 1379.94,323.358 1454.5,355C 1487.59,368.785 1516.43,388.618 1541,414.5C 1562.36,439.067 1572.52,467.734 1571.5,500.5C 1569.83,500.5 1568.17,500.5 1566.5,500.5C 1558.47,491.985 1549.14,485.151 1538.5,480C 1508.8,467.878 1478.8,456.544 1448.5,446C 1407.64,435.302 1366.31,426.968 1324.5,421C 1273.51,414.918 1222.51,408.918 1171.5,403C 1093.68,398.918 1016.01,400.751 938.5,408.5C 938.5,407.5 938.5,406.5 938.5,405.5C 939.777,361.408 942.443,317.408 946.5,273.5C 960.677,273.829 974.677,273.496 988.5,272.5 Z"/></g>
<g><path style="opacity:0.999" fill="#c6d1fd" d="M 988.5,272.5 C 974.677,273.496 960.677,273.829 946.5,273.5C 942.443,317.408 939.777,361.408 938.5,405.5C 937.988,437.384 939.155,469.384 942,501.5C 943.467,516.703 947.634,531.037 954.5,544.5C 955.325,545.386 956.325,545.719 957.5,545.5C 976.059,580.291 996.892,613.624 1020,645.5C 1024.68,654.198 1029.35,662.865 1034,671.5C 1063.06,715.947 1089.73,761.947 1114,809.5C 1128.11,841.717 1141.11,874.384 1153,907.5C 1164.65,938.066 1170.48,969.732 1170.5,1002.5C 1169.87,1018.16 1169.37,1033.83 1169,1049.5C 1167.14,1067.15 1165.47,1084.81 1164,1102.5C 1157.67,1142.45 1151.67,1182.45 1146,1222.5C 1138.89,1262.14 1131.89,1301.81 1125,1341.5C 1110.91,1395.85 1095.58,1449.85 1079,1503.5C 1068.02,1542.26 1057.18,1580.93 1046.5,1619.5C 1044.22,1627.59 1042.55,1635.92 1041.5,1644.5C 1041.5,1644.83 1041.5,1645.17 1041.5,1645.5C 1038.36,1652.17 1034.52,1658.5 1030,1664.5C 1025.07,1669.71 1019.24,1673.55 1012.5,1676C 1001.38,1677.35 990.38,1679.35 979.5,1682C 941.469,1682.9 903.469,1682.23 865.5,1680C 854.528,1678.51 843.861,1675.84 833.5,1672C 824.048,1667.21 816.548,1660.38 811,1651.5C 773.794,1548.1 737.461,1444.43 702,1340.5C 689.234,1314.53 675.9,1288.86 662,1263.5C 643.645,1234.11 624.312,1205.44 604,1177.5C 593.414,1160 583.081,1142.33 573,1124.5C 557.725,1093.62 546.725,1061.28 540,1027.5C 539.163,1010.47 539.497,993.473 541,976.5C 572.888,783.17 604.555,589.836 636,396.5C 642.533,381.101 649.866,366.101 658,351.5C 680.198,318.132 711.032,297.299 750.5,289C 782.975,283.021 815.642,278.354 848.5,275C 895.156,273.647 941.822,272.813 988.5,272.5 Z"/></g>
<g><path style="opacity:1" fill="#312e81" d="M 791.5,343.5 C 848.726,339.343 887.226,364.009 907,417.5C 916.432,458.871 904.932,493.038 872.5,520C 836.257,542.586 799.59,543.253 762.5,522C 723.166,494.353 708.333,456.853 718,409.5C 730.458,374.031 754.958,352.031 791.5,343.5 Z"/></g>
<g><path style="opacity:1" fill="#c5d0fc" d="M 789.5,370.5 C 806.947,369.475 818.781,377.142 825,393.5C 827.937,418.163 817.104,429.33 792.5,427C 772.276,417.223 766.442,402.057 775,381.5C 778.951,376.466 783.784,372.799 789.5,370.5 Z"/></g>
<g><path style="opacity:0.996" fill="#fbd24c" d="M 1566.5,500.5 C 1526.29,501.573 1486.29,505.073 1446.5,511C 1283.52,522.879 1120.52,534.379 957.5,545.5C 956.325,545.719 955.325,545.386 954.5,544.5C 947.634,531.037 943.467,516.703 942,501.5C 939.155,469.384 937.988,437.384 938.5,405.5C 938.5,406.5 938.5,407.5 938.5,408.5C 1016.01,400.751 1093.68,398.918 1171.5,403C 1222.51,408.918 1273.51,414.918 1324.5,421C 1366.31,426.968 1407.64,435.302 1448.5,446C 1478.8,456.544 1508.8,467.878 1538.5,480C 1549.14,485.151 1558.47,491.985 1566.5,500.5 Z"/></g>
<g><path style="opacity:0.004" fill="#000000" d="M 395.5,626.5 C 396.573,627.251 396.74,628.251 396,629.5C 395.517,628.552 395.351,627.552 395.5,626.5 Z"/></g>
<g><path style="opacity:0.008" fill="#574d66" d="M 394.5,630.5 C 395.598,631.601 395.765,632.934 395,634.5C 394.51,633.207 394.343,631.873 394.5,630.5 Z"/></g>
<g><path style="opacity:0.016" fill="#3b339e" d="M 393.5,637.5 C 394.573,638.251 394.74,639.251 394,640.5C 393.517,639.552 393.351,638.552 393.5,637.5 Z"/></g>
<g><path style="opacity:0.004" fill="#000000" d="M 392.5,645.5 C 393.833,646.167 393.833,646.167 392.5,645.5 Z"/></g>
<g><path style="opacity:0.004" fill="#000000" d="M 350.5,1188.5 C 351.833,1189.17 351.833,1189.17 350.5,1188.5 Z"/></g>
<g><path style="opacity:0.012" fill="#c8c5ff" d="M 405.5,1495.5 C 406.525,1495.9 406.692,1496.56 406,1497.5C 405.536,1496.91 405.369,1496.24 405.5,1495.5 Z"/></g>
<g><path style="opacity:0.112" fill="#cdd3fe" d="M 408.5,1504.5 C 406.559,1502.99 406.059,1500.99 407,1498.5C 407.813,1500.44 408.313,1502.44 408.5,1504.5 Z"/></g>
<g><path style="opacity:0.006" fill="#fefffe" d="M 408.5,1504.5 C 409.525,1504.9 409.692,1505.56 409,1506.5C 408.536,1505.91 408.369,1505.24 408.5,1504.5 Z"/></g>
<g><path style="opacity:0.137" fill="#393582" d="M 1046.5,1619.5 C 1045.96,1628.18 1044.3,1636.51 1041.5,1644.5C 1042.55,1635.92 1044.22,1627.59 1046.5,1619.5 Z"/></g>
</svg>
